<svg width="47" height="51" viewBox="0 0 47 51" fill="none" xmlns="http://www.w3.org/2000/svg">
<g id="Frame 11">
<g id="Group 95">
<g id="Group 94">
<path id="Vector 5" d="M9.66766 30.7041C1.94655 10.2633 11.0616 2.75743 16.5843 1.55959C19.3788 6.09954 24.1607 15.1247 20.9329 14.906C17.7051 14.6873 15.011 18.7457 14.0674 20.8022C13.8561 30.3299 23.469 38.7685 25.0701 37.7802C26.351 36.9895 29.7709 35.2471 31.3208 34.4746C34.0319 36.4863 39.2698 41.2869 38.5321 44.3957C37.6098 48.2816 19.319 56.2552 9.66766 30.7041Z" fill="#1485EE" stroke="#202020"/>
<g id="Group 103">
<g id="Group 93">
<g id="Union">
<path fill-rule="evenodd" clip-rule="evenodd" d="M28 13C26.3431 13 25 14.3431 25 16V25.8131C25 25.8944 25.0032 25.9749 25.0096 26.0545L25.0402 30.528L25.0419 30.7798C25.048 31.6625 26.1115 32.105 26.7419 31.487L29.4697 28.8131H43C44.6569 28.8131 46 27.47 46 25.8131V16C46 14.3431 44.6569 13 43 13H28Z" fill="#FFA8A8"/>
<path d="M25.0096 26.0545L25.5096 26.0511L25.5094 26.0329L25.508 26.0148L25.0096 26.0545ZM25.0402 30.528L25.5402 30.5246L25.0402 30.528ZM25.0419 30.7798L24.542 30.7832L25.0419 30.7798ZM26.7419 31.487L27.0919 31.844L26.7419 31.487ZM29.4697 28.8131V28.3131H29.2655L29.1197 28.456L29.4697 28.8131ZM25.5 16C25.5 14.6193 26.6193 13.5 28 13.5V12.5C26.067 12.5 24.5 14.067 24.5 16H25.5ZM25.5 25.8131V16H24.5V25.8131H25.5ZM25.508 26.0148C25.5027 25.9484 25.5 25.8811 25.5 25.8131H24.5C24.5 25.9076 24.5038 26.0014 24.5112 26.0942L25.508 26.0148ZM25.5402 30.5246L25.5096 26.0511L24.5096 26.058L24.5402 30.5315L25.5402 30.5246ZM25.5419 30.7763L25.5402 30.5246L24.5402 30.5315L24.542 30.7832L25.5419 30.7763ZM26.3919 31.1299C26.0766 31.4389 25.545 31.2177 25.5419 30.7763L24.542 30.7832C24.551 32.1074 26.1463 32.771 27.0919 31.844L26.3919 31.1299ZM29.1197 28.456L26.3919 31.1299L27.0919 31.844L29.8197 29.1702L29.1197 28.456ZM43 28.3131H29.4697V29.3131H43V28.3131ZM45.5 25.8131C45.5 27.1938 44.3807 28.3131 43 28.3131V29.3131C44.933 29.3131 46.5 27.7461 46.5 25.8131H45.5ZM45.5 16V25.8131H46.5V16H45.5ZM43 13.5C44.3807 13.5 45.5 14.6193 45.5 16H46.5C46.5 14.067 44.933 12.5 43 12.5V13.5ZM28 13.5H43V12.5H28V13.5Z" fill="#202020"/>
</g>
</g>
<circle id="Ellipse 46" cx="30" cy="21" r="1.75" fill="white" stroke="#202020" stroke-width="0.5"/>
<circle id="Ellipse 47" cx="42" cy="21" r="1.75" fill="white" stroke="#202020" stroke-width="0.5"/>
<circle id="Ellipse 48" cx="36" cy="21" r="1.75" fill="white" stroke="#202020" stroke-width="0.5"/>
</g>
</g>
</g>
</g>
</svg>
