<svg width="40" height="40" viewBox="0 0 40 40" fill="none" xmlns="http://www.w3.org/2000/svg">
<g id="Frame 34">
<g id="Group 128">
<g id="Group 129">
<g id="Group 94">
<path id="Union" fill-rule="evenodd" clip-rule="evenodd" d="M12.8462 0C11.1893 0 9.84619 1.34315 9.84619 3V19.3472C9.84619 19.4683 9.85336 19.5876 9.86729 19.7049L9.90039 24.7708L9.90856 26.0211C9.91441 26.9152 11.0012 27.352 11.625 26.711L15.8713 22.3472H35.1539C36.8107 22.3472 38.1539 21.0041 38.1539 19.3472V3C38.1539 1.34315 36.8107 0 35.1539 0H12.8462Z" fill="#8ECCFF"/>
</g>
<g id="Group 93">
<path id="Union_2" d="M7.40587 24.8661L7.90586 24.8628L7.90567 24.8348L7.90238 24.8071L7.40587 24.8661ZM7.43897 29.9318L6.93898 29.935L7.43897 29.9318ZM7.44714 31.1821L6.94715 31.1853L7.44714 31.1821ZM9.16355 31.872L9.52189 32.2207H9.5219L9.16355 31.872ZM13.4097 27.5084V27.0084H13.1986L13.0514 27.1597L13.4097 27.5084ZM7.88477 8.16114C7.88477 6.78042 9.00405 5.66113 10.3848 5.66113V4.66113C8.45177 4.66113 6.88477 6.22814 6.88477 8.16114H7.88477ZM7.88477 24.5084V8.16114H6.88477V24.5084H7.88477ZM7.90238 24.8071C7.89076 24.7093 7.88477 24.6097 7.88477 24.5084H6.88477C6.88477 24.6492 6.8931 24.7882 6.90936 24.9251L7.90238 24.8071ZM7.93896 29.9285L7.90586 24.8628L6.90588 24.8693L6.93898 29.935L7.93896 29.9285ZM7.94713 31.1788L7.93896 29.9285L6.93898 29.935L6.94715 31.1853L7.94713 31.1788ZM8.80521 31.5233C8.49273 31.8444 7.95005 31.625 7.94713 31.1788L6.94715 31.1853C6.95592 32.5274 8.58676 33.1817 9.52189 32.2207L8.80521 31.5233ZM13.0514 27.1597L8.80521 31.5233L9.5219 32.2207L13.7681 27.8571L13.0514 27.1597ZM32.6925 27.0084H13.4097V28.0084H32.6925V27.0084ZM35.1925 24.5084C35.1925 25.8891 34.0732 27.0084 32.6925 27.0084V28.0084C34.6255 28.0084 36.1925 26.4414 36.1925 24.5084H35.1925ZM35.1925 8.16113V24.5084H36.1925V8.16113H35.1925ZM32.6925 5.66113C34.0732 5.66113 35.1925 6.78042 35.1925 8.16113H36.1925C36.1925 6.22814 34.6255 4.66113 32.6925 4.66113V5.66113ZM10.3848 5.66113H32.6925V4.66113H10.3848V5.66113Z" fill="#202020"/>
</g>
<path id="Ellipse 46" d="M16.7873 16.4001C16.7873 17.7953 15.5861 18.9501 14.0743 18.9501C12.5624 18.9501 11.3613 17.7953 11.3613 16.4001C11.3613 15.0049 12.5624 13.8501 14.0743 13.8501C15.5861 13.8501 16.7873 15.0049 16.7873 16.4001Z" fill="white" stroke="#202020" stroke-width="0.5"/>
<path id="Ellipse 47" d="M33.0832 16.4001C33.0832 17.7953 31.882 18.9501 30.3702 18.9501C28.8583 18.9501 27.6572 17.7953 27.6572 16.4001C27.6572 15.0049 28.8583 13.8501 30.3702 13.8501C31.882 13.8501 33.0832 15.0049 33.0832 16.4001Z" fill="white" stroke="#202020" stroke-width="0.5"/>
<path id="Ellipse 48" d="M24.9352 16.4001C24.9352 17.7953 23.7341 18.9501 22.2222 18.9501C20.7104 18.9501 19.5093 17.7953 19.5093 16.4001C19.5093 15.0049 20.7104 13.8501 22.2222 13.8501C23.7341 13.8501 24.9352 15.0049 24.9352 16.4001Z" fill="white" stroke="#202020" stroke-width="0.5"/>
<path id="Ellipse 71" d="M39.5901 38.1683C39.5901 38.1683 39.5894 38.169 39.5878 38.1703C39.5892 38.169 39.59 38.1683 39.5901 38.1683ZM38.3354 38.2683C38.5686 38.3124 38.771 38.3565 38.9431 38.3998C38.771 38.4431 38.5686 38.4872 38.3354 38.5313C37.3496 38.7178 35.9059 38.8885 34.1023 39.0328C30.5 39.321 25.5139 39.4998 20 39.4998C14.4861 39.4998 9.50002 39.321 5.89774 39.0328C4.09407 38.8885 2.65043 38.7178 1.66462 38.5313C1.43138 38.4872 1.22903 38.4431 1.05692 38.3998C1.22903 38.3565 1.43138 38.3124 1.66462 38.2683C2.65043 38.0818 4.09407 37.9111 5.89774 37.7668C9.50002 37.4787 14.4861 37.2998 20 37.2998C25.5139 37.2998 30.5 37.4787 34.1023 37.7668C35.9059 37.9111 37.3496 38.0818 38.3354 38.2683ZM0.409917 38.1683C0.409964 38.1683 0.410773 38.169 0.412203 38.1703C0.410584 38.169 0.409869 38.1683 0.409917 38.1683ZM0.409917 38.6313C0.409869 38.6313 0.410585 38.6306 0.412204 38.6293C0.410773 38.6306 0.409964 38.6313 0.409917 38.6313ZM39.5879 38.6294C39.5894 38.6307 39.5901 38.6313 39.5901 38.6313C39.59 38.6313 39.5893 38.6307 39.5879 38.6294Z" fill="#8ECCFF" stroke="#222222"/>
</g>
</g>
</g>
</svg>
