<svg width="40" height="36" viewBox="0 0 40 36" fill="none" xmlns="http://www.w3.org/2000/svg">
<g id="Group 128">
<g id="Group 129">
<g id="Group 93">
<path id="Union" d="M7.40587 20.8661L7.90586 20.8628L7.90567 20.8348L7.90238 20.8071L7.40587 20.8661ZM7.43897 25.9318L6.93898 25.935L7.43897 25.9318ZM7.44714 27.1821L6.94715 27.1853L7.44714 27.1821ZM9.16355 27.872L9.52189 28.2207H9.5219L9.16355 27.872ZM13.4097 23.5084V23.0084H13.1986L13.0514 23.1597L13.4097 23.5084ZM7.88477 4.16114C7.88477 2.78042 9.00405 1.66113 10.3848 1.66113V0.661133C8.45177 0.661133 6.88477 2.22814 6.88477 4.16114H7.88477ZM7.88477 20.5084V4.16114H6.88477V20.5084H7.88477ZM7.90238 20.8071C7.89076 20.7093 7.88477 20.6097 7.88477 20.5084H6.88477C6.88477 20.6492 6.8931 20.7882 6.90936 20.9251L7.90238 20.8071ZM7.93896 25.9285L7.90586 20.8628L6.90588 20.8693L6.93898 25.935L7.93896 25.9285ZM7.94713 27.1788L7.93896 25.9285L6.93898 25.935L6.94715 27.1853L7.94713 27.1788ZM8.80521 27.5233C8.49273 27.8444 7.95005 27.625 7.94713 27.1788L6.94715 27.1853C6.95592 28.5274 8.58676 29.1817 9.52189 28.2207L8.80521 27.5233ZM13.0514 23.1597L8.80521 27.5233L9.5219 28.2207L13.7681 23.8571L13.0514 23.1597ZM32.6925 23.0084H13.4097V24.0084H32.6925V23.0084ZM35.1925 20.5084C35.1925 21.8891 34.0732 23.0084 32.6925 23.0084V24.0084C34.6255 24.0084 36.1925 22.4414 36.1925 20.5084H35.1925ZM35.1925 4.16113V20.5084H36.1925V4.16113H35.1925ZM32.6925 1.66113C34.0732 1.66113 35.1925 2.78042 35.1925 4.16113H36.1925C36.1925 2.22814 34.6255 0.661133 32.6925 0.661133V1.66113ZM10.3848 1.66113H32.6925V0.661133H10.3848V1.66113Z" fill="#202020"/>
</g>
<path id="Ellipse 46" d="M16.7873 12.3996C16.7873 13.7948 15.5861 14.9496 14.0743 14.9496C12.5624 14.9496 11.3613 13.7948 11.3613 12.3996C11.3613 11.0044 12.5624 9.84961 14.0743 9.84961C15.5861 9.84961 16.7873 11.0044 16.7873 12.3996Z" stroke="#202020" stroke-width="0.5"/>
<path id="Ellipse 47" d="M33.0832 12.3996C33.0832 13.7948 31.882 14.9496 30.3702 14.9496C28.8583 14.9496 27.6572 13.7948 27.6572 12.3996C27.6572 11.0044 28.8583 9.84961 30.3702 9.84961C31.882 9.84961 33.0832 11.0044 33.0832 12.3996Z" stroke="#202020" stroke-width="0.5"/>
<path id="Ellipse 48" d="M24.9352 12.3996C24.9352 13.7948 23.7341 14.9496 22.2222 14.9496C20.7104 14.9496 19.5093 13.7948 19.5093 12.3996C19.5093 11.0044 20.7104 9.84961 22.2222 9.84961C23.7341 9.84961 24.9352 11.0044 24.9352 12.3996Z" stroke="#202020" stroke-width="0.5"/>
<path id="Ellipse 71" d="M39.5901 34.1683C39.5901 34.1683 39.5894 34.169 39.5878 34.1703C39.5892 34.169 39.59 34.1683 39.5901 34.1683ZM38.3354 34.2683C38.5686 34.3124 38.771 34.3565 38.9431 34.3998C38.771 34.4431 38.5686 34.4872 38.3354 34.5313C37.3496 34.7178 35.9059 34.8885 34.1023 35.0328C30.5 35.321 25.5139 35.4998 20 35.4998C14.4861 35.4998 9.50002 35.321 5.89774 35.0328C4.09407 34.8885 2.65043 34.7178 1.66462 34.5313C1.43138 34.4872 1.22903 34.4431 1.05692 34.3998C1.22903 34.3565 1.43138 34.3124 1.66462 34.2683C2.65043 34.0818 4.09407 33.9111 5.89774 33.7668C9.50002 33.4787 14.4861 33.2998 20 33.2998C25.5139 33.2998 30.5 33.4787 34.1023 33.7668C35.9059 33.9111 37.3496 34.0818 38.3354 34.2683ZM0.409917 34.1683C0.409964 34.1683 0.410773 34.169 0.412203 34.1703C0.410584 34.169 0.409869 34.1683 0.409917 34.1683ZM0.409917 34.6313C0.409869 34.6313 0.410585 34.6306 0.412204 34.6293C0.410773 34.6306 0.409964 34.6313 0.409917 34.6313ZM39.5879 34.6294C39.5894 34.6307 39.5901 34.6313 39.5901 34.6313C39.59 34.6313 39.5893 34.6307 39.5879 34.6294Z" fill="#8ECCFF" stroke="#222222"/>
</g>
</g>
</svg>
