<svg width="41" height="40" viewBox="0 0 41 40" fill="none" xmlns="http://www.w3.org/2000/svg">
<g id="Frame 36">
<g id="Group 132">
<path id="Union" fill-rule="evenodd" clip-rule="evenodd" d="M22.7959 9.71472C25.9379 9.71472 28.4849 7.54001 28.4849 4.85736C28.4849 2.17472 25.9379 0 22.7959 0C19.654 0 17.107 2.17472 17.107 4.85736C17.107 7.54001 19.654 9.71472 22.7959 9.71472ZM21.2809 10.4575C19.5817 10.23 17.927 10.8903 16.8117 12.0792L12.7483 13.3036C12.3339 13.4284 11.9722 13.652 11.6872 13.9367C11.4687 14.0422 11.262 14.1825 11.0765 14.3573L6.51046 18.662C5.62043 19.5011 5.5586 20.8174 6.37237 21.6021C7.18614 22.3867 8.56735 22.3426 9.45738 21.5035L14.0197 17.2024L15.0954 16.8782L13.7601 24.1496C13.6879 24.5425 13.6649 24.9309 13.6866 25.3086L12.8631 30.3674L8.28316 35.4935C7.43621 36.4414 7.7026 37.8306 8.87815 38.5962C10.0537 39.3619 11.6933 39.2142 12.5402 38.2663L17.186 33.0665C17.3693 32.8614 17.5004 32.6356 17.5815 32.3999C17.8595 32.0858 18.0509 31.7063 18.1194 31.2857L18.3781 29.6967C18.7333 29.6999 19.0837 29.6654 19.4249 29.5967L24.3805 32.5891C24.4201 32.6858 24.466 32.782 24.5185 32.8773L27.5192 38.3277C28.2658 39.6839 30.0433 40.3353 31.4895 39.7828C32.9356 39.2302 33.5027 37.6829 32.756 36.3268L29.7554 30.8763C29.6078 30.6082 29.4199 30.3677 29.2023 30.1585C29.0448 29.6955 28.7136 29.2777 28.2203 28.9798L23.3833 26.059C23.4447 25.8638 23.4947 25.6632 23.5324 25.4579L24.7143 19.0224L29.5888 20.4683C30.6688 20.7887 31.8885 20.2025 32.3131 19.1591C32.7377 18.1156 32.2064 17.01 31.1264 16.6897L25.357 14.9783C25.3111 12.7042 23.645 10.774 21.2809 10.4575Z" fill="#8ECCFF"/>
</g>
<g id="Group 131">
<g id="Union_2">
<mask id="path-2-inside-1_347_814" fill="white">
<path fill-rule="evenodd" clip-rule="evenodd" d="M17.9668 9.71472C21.1088 9.71472 23.6558 7.54001 23.6558 4.85736C23.6558 2.17472 21.1088 0 17.9668 0C14.8249 0 12.2779 2.17472 12.2779 4.85736C12.2779 7.54001 14.8249 9.71472 17.9668 9.71472ZM16.4518 10.4575C14.7526 10.23 13.0979 10.8903 11.9826 12.0792L7.91916 13.3036C7.50478 13.4284 7.14309 13.652 6.8581 13.9367C6.6396 14.0422 6.43286 14.1825 6.24743 14.3573L1.68136 18.662C0.791325 19.5011 0.729503 20.8174 1.54327 21.6021C2.35704 22.3867 3.73825 22.3426 4.62828 21.5035L9.19063 17.2024L10.2663 16.8782L8.931 24.1496C8.85884 24.5425 8.83578 24.9308 8.85751 25.3086L8.03398 30.3674L3.45405 35.4935C2.60711 36.4414 2.8735 37.8306 4.04905 38.5962C5.2246 39.3619 6.86415 39.2142 7.7111 38.2663L12.3569 33.0665C12.5402 32.8614 12.6713 32.6356 12.7524 32.3999C13.0304 32.0858 13.2218 31.7063 13.2903 31.2857L13.549 29.6967C13.9041 29.6999 14.2546 29.6654 14.5957 29.5967L19.5513 32.5891C19.591 32.6858 19.6369 32.782 19.6893 32.8773L22.69 38.3277C23.4366 39.6839 25.2142 40.3353 26.6603 39.7828C28.1065 39.2302 28.6735 37.6829 27.9269 36.3268L24.9262 30.8763C24.7786 30.6082 24.5908 30.3677 24.3731 30.1585C24.2157 29.6955 23.8844 29.2777 23.3911 28.9798L18.5542 26.059C18.6156 25.8638 18.6657 25.6632 18.7034 25.4579L19.8852 19.0224L24.7597 20.4683C25.8397 20.7887 27.0594 20.2025 27.484 19.1591C27.9086 18.1156 27.3773 17.01 26.2973 16.6897L20.5279 14.9783C20.482 12.7042 18.8159 10.774 16.4518 10.4575Z"/>
</mask>
<path d="M11.9826 12.0792L12.2711 13.0366L12.5282 12.9592L12.7119 12.7634L11.9826 12.0792ZM16.4518 10.4575L16.5845 9.46634V9.46634L16.4518 10.4575ZM7.91916 13.3036L8.20767 14.2611L8.20767 14.2611L7.91916 13.3036ZM6.8581 13.9367L7.2929 14.8372L7.44519 14.7637L7.56483 14.6442L6.8581 13.9367ZM6.24743 14.3573L5.56145 13.6297H5.56145L6.24743 14.3573ZM1.68136 18.662L2.36733 19.3896H2.36733L1.68136 18.662ZM1.54327 21.6021L2.23739 20.8822H2.23739L1.54327 21.6021ZM4.62828 21.5035L3.94231 20.7759L3.94231 20.7759L4.62828 21.5035ZM9.19063 17.2024L8.90211 16.2449L8.67628 16.3129L8.50465 16.4747L9.19063 17.2024ZM10.2663 16.8782L11.2499 17.0589L11.5457 15.4483L9.97782 15.9208L10.2663 16.8782ZM8.931 24.1496L9.91455 24.3302L8.931 24.1496ZM8.85751 25.3086L9.84451 25.4693L9.86216 25.3609L9.85586 25.2512L8.85751 25.3086ZM8.03398 30.3674L8.77969 31.0337L8.9741 30.8161L9.02099 30.5281L8.03398 30.3674ZM3.45405 35.4935L2.70834 34.8272H2.70834L3.45405 35.4935ZM4.04905 38.5962L4.59483 37.7583H4.59483L4.04905 38.5962ZM7.7111 38.2663L6.96539 37.6H6.96539L7.7111 38.2663ZM12.3569 33.0665L13.1026 33.7328L13.1026 33.7327L12.3569 33.0665ZM12.7524 32.3999L12.0035 31.7371L11.8716 31.8863L11.8068 32.0746L12.7524 32.3999ZM13.2903 31.2857L12.3033 31.125V31.125L13.2903 31.2857ZM13.549 29.6967L13.558 28.6968L12.6998 28.689L12.562 29.536L13.549 29.6967ZM14.5957 29.5967L15.1127 28.7406L14.7796 28.5395L14.3981 28.6164L14.5957 29.5967ZM19.5513 32.5891L20.4767 32.21L20.3513 31.904L20.0683 31.7331L19.5513 32.5891ZM19.6893 32.8773L18.8133 33.3595L18.8133 33.3595L19.6893 32.8773ZM22.69 38.3277L21.814 38.81L22.69 38.3277ZM26.6603 39.7828L26.3034 38.8486L26.6603 39.7828ZM27.9269 36.3268L27.0509 36.809L27.9269 36.3268ZM24.9262 30.8763L25.8023 30.394V30.394L24.9262 30.8763ZM24.3731 30.1585L23.4264 30.4805L23.5047 30.7109L23.6802 30.8796L24.3731 30.1585ZM23.3911 28.9798L23.9081 28.1238H23.9081L23.3911 28.9798ZM18.5542 26.059L17.6003 25.7589L17.3644 26.5087L18.0373 26.915L18.5542 26.059ZM18.7034 25.4579L17.7198 25.2773V25.2773L18.7034 25.4579ZM19.8852 19.0224L20.1696 18.0637L19.1027 17.7472L18.9016 18.8418L19.8852 19.0224ZM24.7597 20.4683L24.4754 21.427L24.7597 20.4683ZM27.484 19.1591L28.4103 19.536V19.536L27.484 19.1591ZM26.2973 16.6897L26.5816 15.731H26.5816L26.2973 16.6897ZM20.5279 14.9783L19.5281 14.9985L19.5428 15.7292L20.2435 15.937L20.5279 14.9783ZM22.6558 4.85736C22.6558 6.84533 20.7105 8.71472 17.9668 8.71472V10.7147C21.507 10.7147 24.6558 8.23468 24.6558 4.85736H22.6558ZM17.9668 1C20.7105 1 22.6558 2.86939 22.6558 4.85736H24.6558C24.6558 1.48004 21.507 -1 17.9668 -1V1ZM13.2779 4.85736C13.2779 2.86939 15.2231 1 17.9668 1V-1C14.4267 -1 11.2779 1.48004 11.2779 4.85736H13.2779ZM17.9668 8.71472C15.2231 8.71472 13.2779 6.84533 13.2779 4.85736H11.2779C11.2779 8.23468 14.4267 10.7147 17.9668 10.7147V8.71472ZM12.7119 12.7634C13.6215 11.7938 14.9613 11.2669 16.3191 11.4487L16.5845 9.46634C14.5438 9.19315 12.5743 9.98685 11.2533 11.395L12.7119 12.7634ZM8.20767 14.2611L12.2711 13.0366L11.6941 11.1217L7.63065 12.3461L8.20767 14.2611ZM7.56483 14.6442C7.73631 14.4729 7.95539 14.3371 8.20767 14.2611L7.63065 12.3461C7.05417 12.5198 6.54987 12.8311 6.15138 13.2292L7.56483 14.6442ZM6.9334 15.0849C7.043 14.9816 7.16468 14.8991 7.2929 14.8372L6.4233 13.0362C6.11453 13.1853 5.82271 13.3834 5.56145 13.6297L6.9334 15.0849ZM2.36733 19.3896L6.9334 15.0849L5.56145 13.6297L0.995384 17.9344L2.36733 19.3896ZM2.23739 20.8822C1.89096 20.5482 1.83357 19.8928 2.36733 19.3896L0.995385 17.9344C-0.250919 19.1093 -0.431953 21.0866 0.849153 22.3219L2.23739 20.8822ZM3.94231 20.7759C3.38934 21.2972 2.61812 21.2493 2.23739 20.8822L0.849153 22.3219C2.09597 23.5242 4.08716 23.388 5.31426 22.2312L3.94231 20.7759ZM8.50465 16.4747L3.94231 20.7759L5.31425 22.2312L9.8766 17.93L8.50465 16.4747ZM9.97782 15.9208L8.90211 16.2449L9.47914 18.1598L10.5548 17.8357L9.97782 15.9208ZM9.91455 24.3302L11.2499 17.0589L9.28278 16.6976L7.94744 23.9689L9.91455 24.3302ZM9.85586 25.2512C9.83873 24.9534 9.85674 24.645 9.91455 24.3302L7.94744 23.9689C7.86093 24.4401 7.83283 24.9083 7.85916 25.366L9.85586 25.2512ZM7.8705 25.1479L7.04697 30.2067L9.02099 30.5281L9.84451 25.4693L7.8705 25.1479ZM7.28827 29.7011L2.70834 34.8272L4.19977 36.1597L8.77969 31.0337L7.28827 29.7011ZM2.70834 34.8272C1.37706 36.3172 1.9151 38.3997 3.50327 39.4342L4.59483 37.7583C3.8319 37.2614 3.83716 36.5656 4.19977 36.1597L2.70834 34.8272ZM3.50327 39.4342C5.02888 40.4279 7.23255 40.3028 8.45681 38.9325L6.96539 37.6C6.49575 38.1256 5.42032 38.296 4.59483 37.7583L3.50327 39.4342ZM8.45681 38.9325L13.1026 33.7328L11.6112 32.4002L6.96539 37.6L8.45681 38.9325ZM13.1026 33.7327C13.3719 33.4313 13.5724 33.0904 13.698 32.7252L11.8068 32.0746C11.7703 32.1808 11.7084 32.2914 11.6112 32.4002L13.1026 33.7327ZM13.5012 33.0626C13.8938 32.6191 14.176 32.0687 14.2773 31.4464L12.3033 31.125C12.2676 31.344 12.1669 31.5526 12.0035 31.7371L13.5012 33.0626ZM14.2773 31.4464L14.536 29.8574L12.562 29.536L12.3033 31.125L14.2773 31.4464ZM14.3981 28.6164C14.1237 28.6717 13.8424 28.6993 13.558 28.6968L13.54 30.6967C13.9659 30.7005 14.3856 30.6592 14.7934 30.577L14.3981 28.6164ZM20.0683 31.7331L15.1127 28.7406L14.0788 30.4527L19.0344 33.4452L20.0683 31.7331ZM20.5654 32.395C20.5311 32.3327 20.5016 32.2709 20.4767 32.21L18.626 32.9683C18.6803 33.1007 18.7427 33.2313 18.8133 33.3595L20.5654 32.395ZM23.566 37.8454L20.5654 32.395L18.8133 33.3595L21.814 38.81L23.566 37.8454ZM26.3034 38.8486C25.3235 39.2231 24.072 38.7644 23.566 37.8454L21.814 38.81C22.8013 40.6033 25.105 41.4476 27.0173 40.7169L26.3034 38.8486ZM27.0509 36.809C27.5047 37.6334 27.1824 38.5128 26.3034 38.8486L27.0173 40.7169C29.0305 39.9477 29.8424 37.7325 28.8029 35.8445L27.0509 36.809ZM24.0502 31.3586L27.0509 36.809L28.8029 35.8445L25.8023 30.394L24.0502 31.3586ZM23.6802 30.8796C23.829 31.0225 23.9538 31.1834 24.0502 31.3586L25.8023 30.394C25.6035 30.033 25.3525 29.7128 25.066 29.4375L23.6802 30.8796ZM22.8742 29.8358C23.179 30.0199 23.3496 30.2547 23.4264 30.4805L25.3199 29.8366C25.0818 29.1363 24.5899 28.5355 23.9081 28.1238L22.8742 29.8358ZM18.0373 26.915L22.8742 29.8358L23.9081 28.1238L19.0711 25.203L18.0373 26.915ZM17.7198 25.2773C17.6896 25.4418 17.6495 25.6025 17.6003 25.7589L19.5081 26.3591C19.5818 26.125 19.6417 25.8845 19.6869 25.6385L17.7198 25.2773ZM18.9016 18.8418L17.7198 25.2773L19.6869 25.6385L20.8687 19.203L18.9016 18.8418ZM25.0441 19.5096L20.1696 18.0637L19.6008 19.9811L24.4754 21.427L25.0441 19.5096ZM26.5578 18.7822C26.327 19.3492 25.631 19.6837 25.0441 19.5096L24.4754 21.427C26.0485 21.8937 27.7918 21.0558 28.4103 19.536L26.5578 18.7822ZM26.0129 17.6484C26.5263 17.8007 26.7596 18.2861 26.5578 18.7822L28.4103 19.536C29.0576 17.9451 28.2282 16.2194 26.5816 15.731L26.0129 17.6484ZM20.2435 15.937L26.0129 17.6484L26.5816 15.731L20.8123 14.0196L20.2435 15.937ZM16.3191 11.4487C18.1915 11.6993 19.4921 13.2147 19.5281 14.9985L21.5277 14.9581C21.4719 12.1936 19.4404 9.84869 16.5845 9.46634L16.3191 11.4487Z" fill="black" mask="url(#path-2-inside-1_347_814)"/>
</g>
</g>
</g>
</svg>
