<svg width="41" height="48" viewBox="0 0 41 48" fill="none" xmlns="http://www.w3.org/2000/svg">
<g id="&#229;&#156;&#176;&#229;&#157;&#128;&#230;&#143;&#146;&#231;&#148;&#187;">
<g id="Group 92">
<path id="Ellipse 45" d="M40.5 42.5C40.5 42.9907 40.1221 43.5837 39.1212 44.2186C38.1445 44.8381 36.6981 45.4147 34.8661 45.9062C31.2095 46.8872 26.1301 47.5 20.5 47.5C14.8699 47.5 9.79046 46.8872 6.13388 45.9062C4.30194 45.4147 2.85549 44.8381 1.87881 44.2186C0.877858 43.5837 0.5 42.9907 0.5 42.5C0.5 42.0093 0.877858 41.4163 1.87881 40.7814C2.85549 40.1619 4.30194 39.5853 6.13388 39.0938C9.79046 38.1128 14.8699 37.5 20.5 37.5C26.1301 37.5 31.2095 38.1128 34.8661 39.0938C36.6981 39.5853 38.1445 40.1619 39.1212 40.7814C40.1221 41.4163 40.5 42.0093 40.5 42.5Z" fill="#1485EE" stroke="#202020"/>
<path id="Ellipse 44" d="M34.75 42.5C34.75 42.836 34.4604 43.2322 33.7366 43.6452C33.0322 44.0472 31.9962 44.4176 30.6944 44.7319C28.0947 45.3594 24.4903 45.75 20.5 45.75C16.5097 45.75 12.9053 45.3594 10.3056 44.7319C9.00379 44.4176 7.96784 44.0472 7.26339 43.6452C6.53963 43.2322 6.25 42.836 6.25 42.5C6.25 42.164 6.53963 41.7678 7.26339 41.3548C7.96784 40.9528 9.00379 40.5824 10.3056 40.2681C12.9053 39.6406 16.5097 39.25 20.5 39.25C24.4903 39.25 28.0947 39.6406 30.6944 40.2681C31.9962 40.5824 33.0322 40.9528 33.7366 41.3548C34.4604 41.7678 34.75 42.164 34.75 42.5Z" fill="#3FBDF1" stroke="#202020" stroke-width="0.5"/>
<g id="Union">
<mask id="path-3-inside-1_255_347" fill="white">
<path fill-rule="evenodd" clip-rule="evenodd" d="M31.7638 24.5935C33.7901 22.0059 35 18.7342 35 15.1765C35 6.79474 28.2843 0 20 0C11.7157 0 5 6.79474 5 15.1765C5 18.7342 6.20993 22.0059 8.23617 24.5935L20 43L31.7638 24.5935Z"/>
</mask>
<path fill-rule="evenodd" clip-rule="evenodd" d="M31.7638 24.5935C33.7901 22.0059 35 18.7342 35 15.1765C35 6.79474 28.2843 0 20 0C11.7157 0 5 6.79474 5 15.1765C5 18.7342 6.20993 22.0059 8.23617 24.5935L20 43L31.7638 24.5935Z" fill="#FFA8A8"/>
<path d="M31.7638 24.5935L30.9765 23.977L30.947 24.0147L30.9212 24.055L31.7638 24.5935ZM8.23617 24.5935L9.07878 24.055L9.05301 24.0147L9.0235 23.977L8.23617 24.5935ZM20 43L19.1574 43.5385L20 44.8569L20.8426 43.5385L20 43ZM34 15.1765C34 18.5038 32.8692 21.5599 30.9765 23.977L32.5512 25.21C34.7109 22.4519 36 18.9645 36 15.1765H34ZM20 1C27.721 1 34 7.33596 34 15.1765H36C36 6.25351 28.8476 -1 20 -1V1ZM6 15.1765C6 7.33596 12.279 1 20 1V-1C11.1524 -1 4 6.25351 4 15.1765H6ZM9.0235 23.977C7.1308 21.5599 6 18.5038 6 15.1765H4C4 18.9645 5.28906 22.4519 7.44884 25.21L9.0235 23.977ZM20.8426 42.4615L9.07878 24.055L7.39356 25.132L19.1574 43.5385L20.8426 42.4615ZM30.9212 24.055L19.1574 42.4615L20.8426 43.5385L32.6064 25.132L30.9212 24.055Z" fill="#202020" mask="url(#path-3-inside-1_255_347)"/>
</g>
</g>
<g id="Union_2">
<mask id="path-5-inside-2_255_347" fill="white">
<path fill-rule="evenodd" clip-rule="evenodd" d="M26.1664 20.936C27.3145 19.4698 28 17.6159 28 15.6C28 10.8504 24.1944 7 19.5 7C14.8056 7 11 10.8504 11 15.6C11 17.6159 11.6855 19.4698 12.8336 20.9361L19.5 31.3667L26.1664 20.936Z"/>
</mask>
<path fill-rule="evenodd" clip-rule="evenodd" d="M26.1664 20.936C27.3145 19.4698 28 17.6159 28 15.6C28 10.8504 24.1944 7 19.5 7C14.8056 7 11 10.8504 11 15.6C11 17.6159 11.6855 19.4698 12.8336 20.9361L19.5 31.3667L26.1664 20.936Z" fill="#B5FFFC"/>
<path d="M26.1664 20.936L25.7727 20.6278L25.758 20.6466L25.7451 20.6668L26.1664 20.936ZM12.8336 20.9361L13.2549 20.6668L13.2421 20.6467L13.2273 20.6278L12.8336 20.9361ZM19.5 31.3667L19.0787 31.636L19.5 32.2952L19.9213 31.636L19.5 31.3667ZM27.5 15.6C27.5 17.5007 26.854 19.2468 25.7727 20.6278L26.5601 21.2443C27.7749 19.6927 28.5 17.731 28.5 15.6H27.5ZM19.5 7.5C23.9128 7.5 27.5 11.121 27.5 15.6H28.5C28.5 10.5797 24.4761 6.5 19.5 6.5V7.5ZM11.5 15.6C11.5 11.121 15.0872 7.5 19.5 7.5V6.5C14.5239 6.5 10.5 10.5797 10.5 15.6H11.5ZM13.2273 20.6278C12.146 19.2468 11.5 17.5008 11.5 15.6H10.5C10.5 17.7311 11.2251 19.6928 12.44 21.2443L13.2273 20.6278ZM19.9213 31.0975L13.2549 20.6668L12.4123 21.2053L19.0787 31.636L19.9213 31.0975ZM25.7451 20.6668L19.0787 31.0975L19.9213 31.636L26.5877 21.2053L25.7451 20.6668Z" fill="#202020" mask="url(#path-5-inside-2_255_347)"/>
</g>
</g>
</svg>
