<svg width="63" height="50" viewBox="0 0 63 50" fill="none" xmlns="http://www.w3.org/2000/svg">
<rect x="12" y="46" width="47" height="4" rx="2" fill="#B5FFFC"/>
<mask id="path-2-inside-1_255_265" fill="white">
<path fill-rule="evenodd" clip-rule="evenodd" d="M55.9418 36.7996C55.6785 35.7008 55.2791 35 54.8319 35C54.385 35 53.9858 35.7002 53.7224 36.7982C53.6087 36.7821 53.497 36.8122 53.3911 36.8935C52.9551 37.2284 52.7484 38.3332 52.8404 39.5821C52.495 39.7433 52.2219 40.1088 52.0873 40.6602C51.7793 41.9216 52.3124 43.6782 53.2781 44.5835C53.7967 45.0698 54.3346 45.2116 54.7692 45.0433C55.2038 45.2115 55.7416 45.0696 56.2601 44.5834C57.2258 43.6781 57.7589 41.9215 57.4509 40.6601C57.3163 40.1087 57.0432 39.7432 56.6978 39.582C56.7898 38.3331 56.5831 37.2283 56.1471 36.8934C56.0807 36.8424 56.0119 36.8115 55.9418 36.7996Z"/>
</mask>
<path fill-rule="evenodd" clip-rule="evenodd" d="M55.9418 36.7996C55.6785 35.7008 55.2791 35 54.8319 35C54.385 35 53.9858 35.7002 53.7224 36.7982C53.6087 36.7821 53.497 36.8122 53.3911 36.8935C52.9551 37.2284 52.7484 38.3332 52.8404 39.5821C52.495 39.7433 52.2219 40.1088 52.0873 40.6602C51.7793 41.9216 52.3124 43.6782 53.2781 44.5835C53.7967 45.0698 54.3346 45.2116 54.7692 45.0433C55.2038 45.2115 55.7416 45.0696 56.2601 44.5834C57.2258 43.6781 57.7589 41.9215 57.4509 40.6601C57.3163 40.1087 57.0432 39.7432 56.6978 39.582C56.7898 38.3331 56.5831 37.2283 56.1471 36.8934C56.0807 36.8424 56.0119 36.8115 55.9418 36.7996Z" fill="#FFA8A8"/>
<path d="M55.9418 36.7996L55.4556 36.9161L55.5325 37.2372L55.858 37.2925L55.9418 36.7996ZM53.7224 36.7982L53.6525 37.2933L54.1026 37.3569L54.2086 36.9148L53.7224 36.7982ZM53.3911 36.8935L53.6957 37.29L53.6957 37.29L53.3911 36.8935ZM52.8404 39.5821L53.0518 40.0352L53.3643 39.8893L53.339 39.5454L52.8404 39.5821ZM52.0873 40.6602L52.573 40.7788L52.0873 40.6602ZM53.2781 44.5835L52.9361 44.9483H52.9361L53.2781 44.5835ZM54.7692 45.0433L54.9496 44.577L54.7691 44.5072L54.5887 44.577L54.7692 45.0433ZM56.2601 44.5834L55.9181 44.2187L56.2601 44.5834ZM57.4509 40.6601L56.9652 40.7787L57.4509 40.6601ZM56.6978 39.582L56.1992 39.5453L56.1739 39.8892L56.4864 40.0351L56.6978 39.582ZM56.1471 36.8934L56.4517 36.4969L56.1471 36.8934ZM56.428 36.6831C56.2905 36.1091 56.1099 35.6038 55.8839 35.2294C55.6751 34.8835 55.3336 34.5 54.8319 34.5V35.5C54.7774 35.5 54.8592 35.4669 55.0277 35.7461C55.179 35.9968 55.3298 36.3913 55.4556 36.9161L56.428 36.6831ZM54.8319 34.5C54.3304 34.5 53.989 34.8833 53.7803 35.2289C53.5544 35.6031 53.3738 36.108 53.2362 36.6816L54.2086 36.9148C54.3344 36.3904 54.4851 35.9963 54.6363 35.7458C54.8048 35.4669 54.8865 35.5 54.8319 35.5V34.5ZM53.7923 36.3031C53.5328 36.2665 53.2882 36.342 53.0865 36.497L53.6957 37.29C53.7044 37.2833 53.7025 37.2869 53.6899 37.2905C53.6839 37.2921 53.6771 37.2934 53.67 37.2938C53.6628 37.2943 53.6568 37.2939 53.6525 37.2933L53.7923 36.3031ZM53.0865 36.497C52.7154 36.782 52.5263 37.3018 52.4274 37.7971C52.322 38.3251 52.2932 38.9601 52.3417 39.6188L53.339 39.5454C53.2955 38.9552 53.3241 38.4134 53.4081 37.993C53.4985 37.54 53.6307 37.3399 53.6957 37.29L53.0865 36.497ZM52.6289 39.129C52.1033 39.3743 51.7592 39.8959 51.6016 40.5416L52.573 40.7788C52.6846 40.3218 52.8866 40.1123 53.0518 40.0352L52.6289 39.129ZM51.6016 40.5416C51.4212 41.2804 51.4922 42.1284 51.7266 42.9006C51.9612 43.6735 52.375 44.4222 52.9361 44.9483L53.62 44.2188C53.2155 43.8395 52.8799 43.2573 52.6835 42.6102C52.4869 41.9625 52.4454 41.3015 52.573 40.7788L51.6016 40.5416ZM52.9361 44.9483C53.5354 45.5102 54.2707 45.7725 54.9498 45.5096L54.5887 44.577C54.3985 44.6507 54.058 44.6294 53.62 44.2188L52.9361 44.9483ZM55.9181 44.2187C55.4803 44.6292 55.1398 44.6506 54.9496 44.577L54.5888 45.5096C55.2678 45.7723 56.0029 45.51 56.6021 44.9482L55.9181 44.2187ZM56.9652 40.7787C57.0928 41.3014 57.0513 41.9624 56.8547 42.6101C56.6583 43.2572 56.3227 43.8394 55.9181 44.2187L56.6021 44.9482C57.1632 44.4222 57.577 43.6734 57.8116 42.9005C58.046 42.1283 58.117 41.2803 57.9366 40.5415L56.9652 40.7787ZM56.4864 40.0351C56.6515 40.1122 56.8536 40.3217 56.9652 40.7787L57.9366 40.5415C57.779 39.8958 57.4349 39.3742 56.9093 39.1289L56.4864 40.0351ZM55.8425 37.2899C55.9075 37.3398 56.0397 37.5399 56.1301 37.9929C56.2141 38.4133 56.2427 38.9551 56.1992 39.5453L57.1965 39.6187C57.245 38.96 57.2162 38.325 57.1108 37.797C57.0119 37.3017 56.8228 36.7819 56.4517 36.4969L55.8425 37.2899ZM55.858 37.2925C55.849 37.291 55.8424 37.2886 55.8388 37.287C55.8355 37.2855 55.8368 37.2856 55.8425 37.2899L56.4517 36.4969C56.3291 36.4027 56.186 36.3339 56.0256 36.3067L55.858 37.2925Z" fill="#202020" mask="url(#path-2-inside-1_255_265)"/>
<rect x="54.4951" y="42.7036" width="0.356424" height="5.2963" rx="0.178212" fill="#202020"/>
<mask id="path-5-inside-2_255_265" fill="white">
<path fill-rule="evenodd" clip-rule="evenodd" d="M53.9998 48.7207V16.5484L43.8887 13.4097V48.7207H53.9998Z"/>
</mask>
<path fill-rule="evenodd" clip-rule="evenodd" d="M53.9998 48.7207V16.5484L43.8887 13.4097V48.7207H53.9998Z" fill="#1485EE"/>
<path d="M53.9998 16.5484H54.9998V15.8118L54.2963 15.5934L53.9998 16.5484ZM53.9998 48.7207V49.7207H54.9998V48.7207H53.9998ZM43.8887 13.4097L44.1851 12.4546L42.8887 12.0522V13.4097H43.8887ZM43.8887 48.7207H42.8887V49.7207H43.8887V48.7207ZM52.9998 16.5484V48.7207H54.9998V16.5484H52.9998ZM43.5922 14.3647L53.7033 17.5035L54.2963 15.5934L44.1851 12.4546L43.5922 14.3647ZM44.8887 48.7207V13.4097H42.8887V48.7207H44.8887ZM53.9998 47.7207H43.8887V49.7207H53.9998V47.7207Z" fill="#202020" mask="url(#path-5-inside-2_255_265)"/>
<path fill-rule="evenodd" clip-rule="evenodd" d="M40 48.4097V17.2986V17.2294V15.0764L44.6666 14.1875L44.6667 14.1875V14.1875V17.2986V48.4097H40Z" fill="#FFA8A8"/>
<path d="M40 48.4097H39.5V48.9097H40V48.4097ZM40 15.0764L39.9064 14.5852L39.5 14.6626V15.0764H40ZM44.6666 14.1875L44.7601 14.6787L44.8573 14.6602L44.9401 14.6061L44.6666 14.1875ZM44.6667 14.1875H45.1667V13.2635L44.3932 13.7689L44.6667 14.1875ZM44.6667 48.4097V48.9097H45.1667V48.4097H44.6667ZM39.5 17.2986V48.4097H40.5V17.2986H39.5ZM40.5 17.2986V17.2294H39.5V17.2986H40.5ZM40.5 17.2294V15.0764H39.5V17.2294H40.5ZM40.0936 15.5676L44.7601 14.6787L44.573 13.6963L39.9064 14.5852L40.0936 15.5676ZM44.3932 13.7689L44.3931 13.7689L44.9401 14.6061L44.9401 14.606L44.3932 13.7689ZM45.1667 14.1875V14.1875H44.1667V14.1875H45.1667ZM44.1667 14.1875V17.2986H45.1667V14.1875H44.1667ZM45.1667 48.4097V17.2986H44.1667V48.4097H45.1667ZM40 48.9097H44.6667V47.9097H40V48.9097Z" fill="#202020"/>
<path d="M46.5489 17.6874L46.4946 16.522L51.9283 18.2153L51.9826 19.3807L46.5489 17.6874Z" fill="#D5ECFF" stroke="#202020" stroke-width="0.5"/>
<path d="M46.5489 20.7987L46.4946 19.6333L51.9283 21.3266L51.9826 22.492L46.5489 20.7987Z" fill="#D5ECFF" stroke="#202020" stroke-width="0.5"/>
<path d="M46.5489 23.9095L46.4946 22.7441L51.9283 24.4374L51.9826 25.6028L46.5489 23.9095Z" fill="#D5ECFF" stroke="#202020" stroke-width="0.5"/>
<path d="M46.5489 27.0209L46.4946 25.8555L51.9283 27.5488L51.9826 28.7142L46.5489 27.0209Z" fill="#D5ECFF" stroke="#202020" stroke-width="0.5"/>
<path d="M46.5489 30.1317L46.4946 28.9663L51.9283 30.6596L51.9826 31.825L46.5489 30.1317Z" fill="#D5ECFF" stroke="#202020" stroke-width="0.5"/>
<path d="M46.5469 33.2655L46.4829 32.1006L51.9304 33.7487L51.9944 34.9136L46.5469 33.2655Z" fill="#D5ECFF" stroke="#202020" stroke-width="0.5"/>
<path d="M46.541 36.4531L46.4438 35.2905L51.9361 36.7826L52.0333 37.9453L46.541 36.4531Z" fill="#D5ECFF" stroke="#202020" stroke-width="0.5"/>
<path d="M46.5363 39.691L46.3848 38.5342L51.9409 39.7675L52.0924 40.9243L46.5363 39.691Z" fill="#D5ECFF" stroke="#202020" stroke-width="0.5"/>
<mask id="path-17-inside-3_255_265" fill="white">
<path fill-rule="evenodd" clip-rule="evenodd" d="M42.0002 49.4001V4.90762L26.8335 0.566895V49.4001H42.0002Z"/>
</mask>
<path fill-rule="evenodd" clip-rule="evenodd" d="M42.0002 49.4001V4.90762L26.8335 0.566895V49.4001H42.0002Z" fill="#53ACFF"/>
<path d="M42.0002 4.90762H43.0002V4.15368L42.2753 3.94622L42.0002 4.90762ZM42.0002 49.4001V50.4001H43.0002V49.4001H42.0002ZM26.8335 0.566895L27.1087 -0.394506L25.8335 -0.759457V0.566895H26.8335ZM26.8335 49.4001H25.8335V50.4001H26.8335V49.4001ZM41.0002 4.90762V49.4001H43.0002V4.90762H41.0002ZM26.5583 1.52829L41.725 5.86902L42.2753 3.94622L27.1087 -0.394506L26.5583 1.52829ZM27.8335 49.4001V0.566895H25.8335V49.4001H27.8335ZM42.0002 48.4001H26.8335V50.4001H42.0002V48.4001Z" fill="#202020" mask="url(#path-17-inside-3_255_265)"/>
<path fill-rule="evenodd" clip-rule="evenodd" d="M21 48.97V5.94507V5.84941V2.87186L27.9999 1.6426L28 1.64252V1.64258V5.94507V48.97H21Z" fill="#FFCECE"/>
<path d="M21 48.97H20.5V49.47H21V48.97ZM21 2.87186L20.9135 2.3794L20.5 2.45202V2.87186H21ZM27.9999 1.6426L28.0864 2.13506L28.1778 2.11901L28.2573 2.07123L27.9999 1.6426ZM28 1.64252H28.5V0.75896L27.7426 1.21389L28 1.64252ZM28 48.97V49.47H28.5V48.97H28ZM20.5 5.94507V48.97H21.5V5.94507H20.5ZM21.5 5.94507V5.84941H20.5V5.94507H21.5ZM21.5 5.84941V2.87186H20.5V5.84941H21.5ZM21.0865 3.36433L28.0864 2.13506L27.9134 1.15014L20.9135 2.3794L21.0865 3.36433ZM27.7426 1.21389L27.7424 1.21397L28.2573 2.07123L28.2574 2.07115L27.7426 1.21389ZM28.5 1.64258V1.64252H27.5V1.64258H28.5ZM27.5 1.64258V5.94507H28.5V1.64258H27.5ZM28.5 48.97V5.94507H27.5V48.97H28.5ZM21 49.47H28V48.47H21V49.47Z" fill="#202020"/>
<path d="M26.2444 1.41271L26.0537 0.351562L28.5464 1.06101L26.2444 1.41271Z" fill="white"/>
<path d="M30.8237 6.48229L30.7422 4.87061L38.8926 7.21233L38.9741 8.82401L30.8237 6.48229Z" fill="#8ECCFF" stroke="#202020" stroke-width="0.5"/>
<path d="M30.8237 10.785L30.7422 9.17334L38.8926 11.5151L38.9741 13.1267L30.8237 10.785Z" fill="#8ECCFF" stroke="#202020" stroke-width="0.5"/>
<path d="M30.8237 15.0873L30.7422 13.4756L38.8926 15.8173L38.9741 17.429L30.8237 15.0873Z" fill="#8ECCFF" stroke="#202020" stroke-width="0.5"/>
<path d="M30.8237 19.39L30.7422 17.7783L38.8926 20.12L38.9741 21.7317L30.8237 19.39Z" fill="#8ECCFF" stroke="#202020" stroke-width="0.5"/>
<path d="M30.8237 23.6923L30.7422 22.0806L38.8926 24.4223L38.9741 26.034L30.8237 23.6923Z" fill="#8ECCFF" stroke="#202020" stroke-width="0.5"/>
<path d="M30.8206 28.0256L30.7246 26.4146L38.8959 28.6938L38.9919 30.3048L30.8206 28.0256Z" fill="#8ECCFF" stroke="#202020" stroke-width="0.5"/>
<path d="M30.8118 32.4345L30.666 30.8267L38.9045 32.8902L39.0502 34.498L30.8118 32.4345Z" fill="#8ECCFF" stroke="#202020" stroke-width="0.5"/>
<path d="M30.8044 36.9123L30.5771 35.3125L38.9113 37.0181L39.1386 38.6179L30.8044 36.9123Z" fill="#8ECCFF" stroke="#202020" stroke-width="0.5"/>
<mask id="path-30-inside-4_255_265" fill="white">
<path fill-rule="evenodd" clip-rule="evenodd" d="M24.0593 25.7379C23.3205 23.4557 22.1999 22 20.9454 22C19.6914 22 18.5713 23.4544 17.8325 25.7348C17.5134 25.7015 17.1999 25.7638 16.9028 25.9328C15.6797 26.6284 15.0997 28.9228 15.3577 31.5167C14.3887 31.8516 13.6227 32.6107 13.2449 33.7558C12.3807 36.3758 13.8765 40.024 16.5858 41.9044C18.0408 42.9142 19.55 43.2088 20.7693 42.8593C21.9886 43.2086 23.4975 42.9139 24.9524 41.9042C27.6617 40.0239 29.1575 36.3757 28.2933 33.7557C27.9155 32.6106 27.1495 31.8514 26.1805 31.5166C26.4385 28.9227 25.8585 26.6283 24.6354 25.9327C24.4489 25.8267 24.256 25.7626 24.0593 25.7379Z"/>
</mask>
<path fill-rule="evenodd" clip-rule="evenodd" d="M24.0593 25.7379C23.3205 23.4557 22.1999 22 20.9454 22C19.6914 22 18.5713 23.4544 17.8325 25.7348C17.5134 25.7015 17.1999 25.7638 16.9028 25.9328C15.6797 26.6284 15.0997 28.9228 15.3577 31.5167C14.3887 31.8516 13.6227 32.6107 13.2449 33.7558C12.3807 36.3758 13.8765 40.024 16.5858 41.9044C18.0408 42.9142 19.55 43.2088 20.7693 42.8593C21.9886 43.2086 23.4975 42.9139 24.9524 41.9042C27.6617 40.0239 29.1575 36.3757 28.2933 33.7557C27.9155 32.6106 27.1495 31.8514 26.1805 31.5166C26.4385 28.9227 25.8585 26.6283 24.6354 25.9327C24.4489 25.8267 24.256 25.7626 24.0593 25.7379Z" fill="#FFA8A8"/>
<path d="M24.0593 25.7379L23.5836 25.8919L23.6815 26.1943L23.9969 26.2339L24.0593 25.7379ZM17.8325 25.7348L17.7805 26.2321L18.1833 26.2742L18.3081 25.889L17.8325 25.7348ZM16.9028 25.9328L16.6557 25.4982L16.6557 25.4982L16.9028 25.9328ZM15.3577 31.5167L15.521 31.9893L15.8944 31.8603L15.8553 31.4672L15.3577 31.5167ZM13.2449 33.7558L12.7701 33.5992H12.7701L13.2449 33.7558ZM16.5858 41.9044L16.3007 42.3151H16.3007L16.5858 41.9044ZM20.7693 42.8593L20.907 42.3786L20.7693 42.3392L20.6315 42.3787L20.7693 42.8593ZM24.9524 41.9042L25.2375 42.315L24.9524 41.9042ZM28.2933 33.7557L28.7681 33.5991V33.5991L28.2933 33.7557ZM26.1805 31.5166L25.6829 31.4671L25.6438 31.8602L26.0172 31.9892L26.1805 31.5166ZM24.6354 25.9327L24.3882 26.3673H24.3882L24.6354 25.9327ZM24.535 25.5839C24.1546 24.4086 23.6654 23.4111 23.0833 22.6971C22.5037 21.9863 21.7816 21.5 20.9454 21.5V22.5C21.3637 22.5 21.8292 22.7416 22.3083 23.3291C22.7847 23.9134 23.2253 24.7849 23.5836 25.8919L24.535 25.5839ZM20.9454 21.5C20.1096 21.5 19.3878 21.9858 18.8083 22.6962C18.2263 23.4096 17.7373 24.4063 17.3568 25.5807L18.3081 25.889C18.6665 24.7829 19.1069 23.9122 19.5832 23.3283C20.062 22.7414 20.5273 22.5 20.9454 22.5V21.5ZM17.8845 25.2376C17.4616 25.1934 17.0435 25.2776 16.6557 25.4982L17.15 26.3674C17.3563 26.2501 17.5652 26.2096 17.7805 26.2321L17.8845 25.2376ZM16.6557 25.4982C15.8743 25.9425 15.3721 26.8445 15.0921 27.8827C14.8074 28.9379 14.7265 30.2227 14.8602 31.5662L15.8553 31.4672C15.7309 30.2169 15.8109 29.0575 16.0576 28.1431C16.3088 27.2117 16.7082 26.6187 17.15 26.3674L16.6557 25.4982ZM15.1944 31.0442C14.0688 31.4331 13.1936 32.3154 12.7701 33.5992L13.7197 33.9125C14.0518 32.906 14.7087 32.27 15.521 31.9893L15.1944 31.0442ZM12.7701 33.5992C12.2908 35.0521 12.4763 36.7452 13.1126 38.2971C13.7507 39.8535 14.8603 41.3155 16.3007 42.3151L16.8709 41.4936C15.6019 40.6129 14.609 39.3106 14.0379 37.9178C13.465 36.5206 13.3348 35.0795 13.7197 33.9125L12.7701 33.5992ZM16.3007 42.3151C17.8456 43.3873 19.5084 43.7408 20.907 43.34L20.6315 42.3787C19.5915 42.6767 18.236 42.441 16.8709 41.4936L16.3007 42.3151ZM24.6673 41.4935C23.3023 42.4408 21.947 42.6766 20.907 42.3786L20.6316 43.34C22.0302 43.7406 23.6927 43.3871 25.2375 42.315L24.6673 41.4935ZM27.8184 33.9124C28.2034 35.0794 28.0732 36.5204 27.5003 37.9177C26.9292 39.3105 25.9363 40.6128 24.6673 41.4935L25.2375 42.315C26.6779 41.3153 27.7875 39.8533 28.4255 38.297C29.0619 36.745 29.2474 35.052 28.7681 33.5991L27.8184 33.9124ZM26.0172 31.9892C26.8295 32.2699 27.4864 32.9059 27.8184 33.9124L28.7681 33.5991C28.3446 32.3153 27.4694 31.433 26.3437 31.044L26.0172 31.9892ZM24.3882 26.3673C24.83 26.6186 25.2294 27.2116 25.4806 28.143C25.7272 29.0573 25.8073 30.2168 25.6829 31.4671L26.678 31.5661C26.8117 30.2225 26.7307 28.9378 26.4461 27.8826C26.1661 26.8444 25.6639 25.9424 24.8825 25.4981L24.3882 26.3673ZM23.9969 26.2339C24.1262 26.2502 24.2565 26.2925 24.3882 26.3673L24.8825 25.4981C24.6413 25.3609 24.3859 25.275 24.1218 25.2418L23.9969 26.2339Z" fill="#202020" mask="url(#path-30-inside-4_255_265)"/>
<rect x="20" y="38" width="1" height="11" rx="0.5" fill="#202020"/>
<mask id="path-33-inside-5_255_265" fill="white">
<path fill-rule="evenodd" clip-rule="evenodd" d="M57.5 20H51.5C50.1193 20 49 18.8807 49 17.5C49 16.2802 49.8737 15.2644 51.0294 15.0442C51.2528 13.3266 52.7215 12 54.5 12C55.4727 12 56.3527 12.3968 56.987 13.0373C57.1544 13.0127 57.3257 13 57.5 13C59.433 13 61 14.567 61 16.5C61 16.6698 60.9879 16.8367 60.9646 17H61.5C62.3284 17 63 17.6716 63 18.5C63 19.3284 62.3284 20 61.5 20H57.5Z"/>
</mask>
<path fill-rule="evenodd" clip-rule="evenodd" d="M57.5 20H51.5C50.1193 20 49 18.8807 49 17.5C49 16.2802 49.8737 15.2644 51.0294 15.0442C51.2528 13.3266 52.7215 12 54.5 12C55.4727 12 56.3527 12.3968 56.987 13.0373C57.1544 13.0127 57.3257 13 57.5 13C59.433 13 61 14.567 61 16.5C61 16.6698 60.9879 16.8367 60.9646 17H61.5C62.3284 17 63 17.6716 63 18.5C63 19.3284 62.3284 20 61.5 20H57.5Z" fill="white"/>
<path d="M51.0294 15.0442L51.123 15.5354L51.4786 15.4677L51.5252 15.1087L51.0294 15.0442ZM56.987 13.0373L56.6317 13.3891L56.8096 13.5687L57.0597 13.532L56.987 13.0373ZM60.9646 17L60.4696 16.9292L60.3879 17.5H60.9646V17ZM57.5 19.5H51.5V20.5H57.5V19.5ZM51.5 19.5C50.3954 19.5 49.5 18.6046 49.5 17.5H48.5C48.5 19.1569 49.8431 20.5 51.5 20.5V19.5ZM49.5 17.5C49.5 16.5247 50.1986 15.7115 51.123 15.5354L50.9359 14.5531C49.5487 14.8173 48.5 16.0356 48.5 17.5H49.5ZM51.5252 15.1087C51.7166 13.6369 52.9759 12.5 54.5 12.5V11.5C52.467 11.5 50.7889 13.0162 50.5336 14.9797L51.5252 15.1087ZM54.5 12.5C55.3339 12.5 56.0875 12.8395 56.6317 13.3891L57.3423 12.6855C56.6179 11.954 55.6115 11.5 54.5 11.5V12.5ZM57.0597 13.532C57.2031 13.511 57.3501 13.5 57.5 13.5V12.5C57.3013 12.5 57.1058 12.5145 56.9144 12.5426L57.0597 13.532ZM57.5 13.5C59.1569 13.5 60.5 14.8431 60.5 16.5H61.5C61.5 14.2909 59.7091 12.5 57.5 12.5V13.5ZM60.5 16.5C60.5 16.646 60.4896 16.7893 60.4696 16.9292L61.4595 17.0708C61.4862 16.8841 61.5 16.6935 61.5 16.5H60.5ZM60.9646 17.5H61.5V16.5H60.9646V17.5ZM61.5 17.5C62.0523 17.5 62.5 17.9477 62.5 18.5H63.5C63.5 17.3954 62.6046 16.5 61.5 16.5V17.5ZM62.5 18.5C62.5 19.0523 62.0523 19.5 61.5 19.5V20.5C62.6046 20.5 63.5 19.6046 63.5 18.5H62.5ZM61.5 19.5H57.5V20.5H61.5V19.5Z" fill="#202020" mask="url(#path-33-inside-5_255_265)"/>
<mask id="path-35-inside-6_255_265" fill="white">
<path fill-rule="evenodd" clip-rule="evenodd" d="M10 17H18.8929H19.4821C19.7771 17 20.0562 16.9319 20.3044 16.8105C21.8774 16.3725 23 15.2235 23 13.875C23 12.4374 21.7243 11.2266 19.9872 10.8622C19.9957 10.7424 20 10.6217 20 10.5C20 7.46243 17.3137 5 14 5C11.5857 5 9.50446 6.30712 8.55253 8.19145C6.4969 8.75008 5 10.4677 5 12.5C5 12.7555 5.02367 13.0061 5.06913 13.25H1.875C0.839466 13.25 -1.90735e-06 14.0895 -1.90735e-06 15.125C-1.90735e-06 16.1605 0.839464 17 1.875 17H10Z"/>
</mask>
<path fill-rule="evenodd" clip-rule="evenodd" d="M10 17H18.8929H19.4821C19.7771 17 20.0562 16.9319 20.3044 16.8105C21.8774 16.3725 23 15.2235 23 13.875C23 12.4374 21.7243 11.2266 19.9872 10.8622C19.9957 10.7424 20 10.6217 20 10.5C20 7.46243 17.3137 5 14 5C11.5857 5 9.50446 6.30712 8.55253 8.19145C6.4969 8.75008 5 10.4677 5 12.5C5 12.7555 5.02367 13.0061 5.06913 13.25H1.875C0.839466 13.25 -1.90735e-06 14.0895 -1.90735e-06 15.125C-1.90735e-06 16.1605 0.839464 17 1.875 17H10Z" fill="white"/>
<path d="M20.3044 16.8105L20.0849 16.3613L20.1261 16.3412L20.1703 16.3289L20.3044 16.8105ZM19.9872 10.8622L19.8845 11.3515L19.4576 11.2619L19.4885 10.8268L19.9872 10.8622ZM8.55253 8.19145L8.99882 8.41691L8.89845 8.61558L8.68365 8.67395L8.55253 8.19145ZM5.06913 13.25L5.56067 13.1584L5.67095 13.75H5.06913V13.25ZM10 16.5H18.8929V17.5H10V16.5ZM18.8929 16.5H19.4821V17.5H18.8929V16.5ZM19.4821 16.5C19.6993 16.5 19.9035 16.45 20.0849 16.3613L20.524 17.2598C20.2088 17.4138 19.8548 17.5 19.4821 17.5V16.5ZM20.1703 16.3289C21.6147 15.9267 22.5 14.9195 22.5 13.875H23.5C23.5 15.5276 22.14 16.8184 20.4386 17.2922L20.1703 16.3289ZM22.5 13.875C22.5 12.7627 21.4896 11.6883 19.8845 11.3515L20.0899 10.3728C21.959 10.765 23.5 12.1122 23.5 13.875H22.5ZM19.4885 10.8268C19.4961 10.7188 19.5 10.6099 19.5 10.5H20.5C20.5 10.6335 20.4953 10.766 20.4859 10.8975L19.4885 10.8268ZM19.5 10.5C19.5 7.77864 17.0794 5.5 14 5.5V4.5C17.548 4.5 20.5 7.14623 20.5 10.5H19.5ZM14 5.5C11.7641 5.5 9.86118 6.70988 8.99882 8.41691L8.10625 7.966C9.14775 5.90437 11.4073 4.5 14 4.5V5.5ZM8.68365 8.67395C6.80851 9.18353 5.5 10.7298 5.5 12.5H4.5C4.5 10.2057 6.18528 8.31663 8.42141 7.70895L8.68365 8.67395ZM5.5 12.5C5.5 12.7246 5.52079 12.9445 5.56067 13.1584L4.5776 13.3416C4.52654 13.0677 4.5 12.7865 4.5 12.5H5.5ZM5.06913 13.75H1.875V12.75H5.06913V13.75ZM1.875 13.75C1.11561 13.75 0.499998 14.3656 0.499998 15.125H-0.500002C-0.500002 13.8133 0.563324 12.75 1.875 12.75V13.75ZM0.499998 15.125C0.499998 15.8844 1.11561 16.5 1.875 16.5V17.5C0.563322 17.5 -0.500002 16.4367 -0.500002 15.125H0.499998ZM1.875 16.5H10V17.5H1.875V16.5Z" fill="#202020" mask="url(#path-35-inside-6_255_265)"/>
</svg>
