<svg width="61" height="53" viewBox="0 0 61 53" fill="none" xmlns="http://www.w3.org/2000/svg">
<g id="&#230;&#136;&#145;&#231;&#154;&#132;&#229;&#155;&#190;&#230;&#160;&#135;">
<path id="Vector" d="M18 18C18 19.5759 18.3104 21.1363 18.9134 22.5922C19.5165 24.0481 20.4004 25.371 21.5147 26.4853C22.629 27.5996 23.9519 28.4835 25.4078 29.0866C26.8637 29.6896 28.4241 30 30 30C31.5759 30 33.1363 29.6896 34.5922 29.0866C36.0481 28.4835 37.371 27.5996 38.4853 26.4853C39.5996 25.371 40.4835 24.0481 41.0866 22.5922C41.6896 21.1363 42 19.5759 42 18C42 16.4241 41.6896 14.8637 41.0866 13.4078C40.4835 11.9519 39.5996 10.629 38.4853 9.51472C37.371 8.40042 36.0481 7.5165 34.5922 6.91345C33.1363 6.31039 31.5759 6 30 6C28.4241 6 26.8637 6.31039 25.4078 6.91345C23.9519 7.5165 22.629 8.40042 21.5147 9.51472C20.4004 10.629 19.5165 11.9519 18.9134 13.4078C18.3104 14.8637 18 16.4241 18 18Z" fill="#8ECCFF"/>
<path id="Vector_2" d="M47 47C46.851 42.4392 44.9947 38.1167 41.8229 34.9449C38.651 31.773 34.4118 30 30 30C25.5882 30 21.349 31.773 18.1771 34.9449C15.0053 38.1167 13.149 42.4392 13 47H47Z" fill="#8ECCFF"/>
<circle id="Ellipse 67" cx="26" cy="19" r="10.5" stroke="black"/>
<g id="Group 125">
<path id="Ellipse 68" d="M41.8358 48.5088C41.8358 39.4735 34.4852 32.149 25.4179 32.149C16.3505 32.149 9 39.4735 9 48.5088" stroke="black"/>
<path id="Vector 24" d="M9 48.168H41.8358" stroke="black"/>
</g>
<ellipse id="Ellipse 69" cx="22" cy="19" rx="1" ry="2" fill="#4A4A4A"/>
<ellipse id="Ellipse 70" cx="27" cy="19" rx="1" ry="2" fill="#4A4A4A"/>
<rect id="Rectangle 131" x="-0.0422877" y="0.694314" width="14.281" height="5.81265" rx="2.90633" transform="matrix(0.674812 0.737989 -0.759388 0.650638 16.7391 34.2147)" fill="#8ECCFF" stroke="black"/>
<rect id="Rectangle 132" x="-0.712345" y="-0.0911135" width="17.1125" height="5.77135" rx="2.88567" transform="matrix(-0.800634 0.599153 -0.624055 -0.78138 37.387 39.4124)" fill="#8ECCFF" stroke="black"/>
</g>
</svg>
