<svg width="62" height="53" viewBox="0 0 62 53" fill="none" xmlns="http://www.w3.org/2000/svg">
<path d="M24.6677 32.7041C16.9466 12.2633 26.0616 4.75743 31.5843 3.55959C34.3788 8.09954 39.1607 17.1247 35.9329 16.906C32.7051 16.6873 30.011 20.7457 29.0674 22.8022C28.8561 32.3299 38.469 40.7685 40.0701 39.7802C41.351 38.9895 44.7709 37.2471 46.3208 36.4746C49.0319 38.4863 54.2698 43.2869 53.5321 46.3957C52.6098 50.2816 34.319 58.2552 24.6677 32.7041Z" fill="#1485EE" stroke="#202020"/>
<path fill-rule="evenodd" clip-rule="evenodd" d="M43 15C41.3431 15 40 16.3431 40 18V27.8131C40 27.8944 40.0032 27.9749 40.0096 28.0545L40.0402 32.528L40.0419 32.7798C40.048 33.6625 41.1115 34.105 41.7419 33.487L44.4697 30.8131H58C59.6569 30.8131 61 29.47 61 27.8131V18C61 16.3431 59.6569 15 58 15H43Z" fill="#FFA8A8"/>
<path d="M40.0096 28.0545L40.5096 28.0511L40.5094 28.0329L40.508 28.0148L40.0096 28.0545ZM40.0402 32.528L40.5402 32.5246L40.0402 32.528ZM40.0419 32.7798L39.542 32.7832L40.0419 32.7798ZM41.7419 33.487L42.0919 33.844L41.7419 33.487ZM44.4697 30.8131V30.3131H44.2655L44.1197 30.456L44.4697 30.8131ZM40.5 18C40.5 16.6193 41.6193 15.5 43 15.5V14.5C41.067 14.5 39.5 16.067 39.5 18H40.5ZM40.5 27.8131V18H39.5V27.8131H40.5ZM40.508 28.0148C40.5027 27.9484 40.5 27.8811 40.5 27.8131H39.5C39.5 27.9076 39.5038 28.0014 39.5112 28.0942L40.508 28.0148ZM40.5402 32.5246L40.5096 28.0511L39.5096 28.058L39.5402 32.5315L40.5402 32.5246ZM40.5419 32.7763L40.5402 32.5246L39.5402 32.5315L39.542 32.7832L40.5419 32.7763ZM41.3919 33.1299C41.0766 33.4389 40.545 33.2177 40.5419 32.7763L39.542 32.7832C39.551 34.1074 41.1463 34.771 42.0919 33.844L41.3919 33.1299ZM44.1197 30.456L41.3919 33.1299L42.0919 33.844L44.8197 31.1702L44.1197 30.456ZM58 30.3131H44.4697V31.3131H58V30.3131ZM60.5 27.8131C60.5 29.1938 59.3807 30.3131 58 30.3131V31.3131C59.933 31.3131 61.5 29.7461 61.5 27.8131H60.5ZM60.5 18V27.8131H61.5V18H60.5ZM58 15.5C59.3807 15.5 60.5 16.6193 60.5 18H61.5C61.5 16.067 59.933 14.5 58 14.5V15.5ZM43 15.5H58V14.5H43V15.5Z" fill="#202020"/>
<circle cx="45" cy="23" r="1.75" fill="white" stroke="#202020" stroke-width="0.5"/>
<circle cx="57" cy="23" r="1.75" fill="white" stroke="#202020" stroke-width="0.5"/>
<circle cx="51" cy="23" r="1.75" fill="white" stroke="#202020" stroke-width="0.5"/>
<path d="M4.39827 21.3724L16.3946 23.6283L16.7679 21.8646L6.21745 16.7963L4.39827 21.3724Z" fill="#B5FFFC" stroke="#202020" stroke-width="0.5"/>
<path d="M0.89021 7.35396L17.7006 20.3774L19.9039 18.0197L7.9453 1.91882L0.89021 7.35396Z" fill="#B5FFFC" stroke="#202020" stroke-width="0.5"/>
</svg>
